<mxfile host="app.diagrams.net" modified="2023-07-14T12:51:56.708Z" agent="Mozilla/5.0 (X11; Linux x86_64; rv:109.0) Gecko/20100101 Firefox/115.0" etag="K3skPlgbgYWyYOpGI0Qi" version="21.6.1" type="device">
  <diagram name="Page-1" id="c37626ed-c26b-45fb-9056-f9ebc6bb27b6">
    <mxGraphModel dx="986" dy="630" grid="1" gridSize="10" guides="1" tooltips="1" connect="1" arrows="1" fold="1" page="1" pageScale="1" pageWidth="1100" pageHeight="850" background="none" math="0" shadow="0">
      <root>
        <mxCell id="0" />
        <mxCell id="1" parent="0" />
        <mxCell id="ac0P9hnE3jVQKmsabjy_-12" value="868 MHz" style="rounded=0;orthogonalLoop=1;jettySize=auto;html=1;exitX=1;exitY=0.5;exitDx=0;exitDy=0;entryX=0;entryY=0.5;entryDx=0;entryDy=0;startArrow=classic;startFill=1;labelBorderColor=default;" edge="1" parent="1" source="ac0P9hnE3jVQKmsabjy_-1" target="ac0P9hnE3jVQKmsabjy_-3">
          <mxGeometry relative="1" as="geometry" />
        </mxCell>
        <mxCell id="ac0P9hnE3jVQKmsabjy_-1" value="Gateway" style="ellipse;whiteSpace=wrap;html=1;fontStyle=1;fontSize=15;" vertex="1" parent="1">
          <mxGeometry x="450" y="335" width="90" height="60" as="geometry" />
        </mxCell>
        <mxCell id="ac0P9hnE3jVQKmsabjy_-10" value="&lt;div&gt;868 MHz&lt;/div&gt;" style="rounded=0;orthogonalLoop=1;jettySize=auto;html=1;exitX=1;exitY=0.5;exitDx=0;exitDy=0;entryX=0;entryY=0;entryDx=0;entryDy=0;startArrow=classic;startFill=1;labelBorderColor=default;" edge="1" parent="1" source="ac0P9hnE3jVQKmsabjy_-2" target="ac0P9hnE3jVQKmsabjy_-1">
          <mxGeometry relative="1" as="geometry" />
        </mxCell>
        <mxCell id="ac0P9hnE3jVQKmsabjy_-2" value="&lt;div&gt;Repeater&lt;/div&gt;&lt;div&gt;869.0 MHz&lt;/div&gt;" style="rounded=1;whiteSpace=wrap;html=1;spacingTop=5;fillColor=#f8cecc;strokeColor=#b85450;" vertex="1" parent="1">
          <mxGeometry x="320" y="305" width="70" height="40" as="geometry" />
        </mxCell>
        <mxCell id="ac0P9hnE3jVQKmsabjy_-14" value="&lt;div&gt;868.5 MHz&lt;/div&gt;" style="rounded=0;orthogonalLoop=1;jettySize=auto;html=1;exitX=1;exitY=0;exitDx=0;exitDy=0;entryX=0;entryY=0.5;entryDx=0;entryDy=0;endArrow=classic;endFill=1;startArrow=classic;startFill=1;labelBorderColor=default;fillColor=#dae8fc;strokeColor=#6c8ebf;fontColor=#000000;spacingTop=0;labelBackgroundColor=#CCE5FF;" edge="1" parent="1" source="ac0P9hnE3jVQKmsabjy_-3" target="ac0P9hnE3jVQKmsabjy_-4">
          <mxGeometry relative="1" as="geometry" />
        </mxCell>
        <mxCell id="ac0P9hnE3jVQKmsabjy_-15" value="868.5 MHz" style="rounded=0;orthogonalLoop=1;jettySize=auto;html=1;exitX=1;exitY=1;exitDx=0;exitDy=0;entryX=0;entryY=0.5;entryDx=0;entryDy=0;startArrow=classic;startFill=1;labelBorderColor=default;fillColor=#dae8fc;strokeColor=#6c8ebf;fontColor=#000000;labelBackgroundColor=#CCE5FF;" edge="1" parent="1" source="ac0P9hnE3jVQKmsabjy_-3" target="ac0P9hnE3jVQKmsabjy_-5">
          <mxGeometry relative="1" as="geometry" />
        </mxCell>
        <mxCell id="ac0P9hnE3jVQKmsabjy_-3" value="&lt;div&gt;Repeater&lt;/div&gt;&lt;div&gt;868.5 MHz&lt;/div&gt;" style="rounded=1;whiteSpace=wrap;html=1;spacingTop=5;fillColor=#dae8fc;strokeColor=#6c8ebf;" vertex="1" parent="1">
          <mxGeometry x="610" y="345" width="70" height="40" as="geometry" />
        </mxCell>
        <mxCell id="ac0P9hnE3jVQKmsabjy_-4" value="&lt;div&gt;Sender&lt;/div&gt;&lt;div&gt;1&lt;/div&gt;" style="ellipse;whiteSpace=wrap;html=1;aspect=fixed;spacingTop=5;fillColor=#dae8fc;strokeColor=#6c8ebf;" vertex="1" parent="1">
          <mxGeometry x="760" y="305" width="50" height="50" as="geometry" />
        </mxCell>
        <mxCell id="ac0P9hnE3jVQKmsabjy_-5" value="&lt;div&gt;Sender&lt;/div&gt;&lt;div&gt;3&lt;/div&gt;" style="ellipse;whiteSpace=wrap;html=1;aspect=fixed;spacingTop=5;fillColor=#dae8fc;strokeColor=#6c8ebf;" vertex="1" parent="1">
          <mxGeometry x="760" y="375" width="50" height="50" as="geometry" />
        </mxCell>
        <mxCell id="ac0P9hnE3jVQKmsabjy_-11" value="&lt;div&gt;868 MHz&lt;/div&gt;" style="rounded=0;orthogonalLoop=1;jettySize=auto;html=1;exitX=1;exitY=0.5;exitDx=0;exitDy=0;entryX=0;entryY=1;entryDx=0;entryDy=0;startArrow=classic;startFill=1;labelBackgroundColor=default;labelBorderColor=default;" edge="1" parent="1" source="ac0P9hnE3jVQKmsabjy_-6" target="ac0P9hnE3jVQKmsabjy_-1">
          <mxGeometry relative="1" as="geometry" />
        </mxCell>
        <mxCell id="ac0P9hnE3jVQKmsabjy_-6" value="&lt;div&gt;Sender&lt;/div&gt;&lt;div&gt;2&lt;br&gt;&lt;/div&gt;" style="ellipse;whiteSpace=wrap;html=1;aspect=fixed;spacingTop=5;" vertex="1" parent="1">
          <mxGeometry x="340" y="375" width="50" height="50" as="geometry" />
        </mxCell>
        <mxCell id="ac0P9hnE3jVQKmsabjy_-9" value="&lt;div&gt;869 Mhz&lt;/div&gt;" style="rounded=0;orthogonalLoop=1;jettySize=auto;html=1;exitX=1;exitY=0;exitDx=0;exitDy=0;entryX=0;entryY=0.5;entryDx=0;entryDy=0;startArrow=classic;startFill=1;labelBorderColor=default;fillColor=#f8cecc;strokeColor=#b85450;fontColor=#000000;labelBackgroundColor=#FFCCCC;" edge="1" parent="1" source="ac0P9hnE3jVQKmsabjy_-7" target="ac0P9hnE3jVQKmsabjy_-2">
          <mxGeometry relative="1" as="geometry" />
        </mxCell>
        <mxCell id="ac0P9hnE3jVQKmsabjy_-7" value="&lt;div&gt;Sender&lt;/div&gt;&lt;div&gt;4&lt;/div&gt;" style="ellipse;whiteSpace=wrap;html=1;aspect=fixed;spacingTop=5;fillColor=#f8cecc;strokeColor=#b85450;" vertex="1" parent="1">
          <mxGeometry x="220" y="345" width="50" height="50" as="geometry" />
        </mxCell>
      </root>
    </mxGraphModel>
  </diagram>
</mxfile>
